<svg width="52" height="49" viewBox="0 0 52 49" fill="none" xmlns="http://www.w3.org/2000/svg">
<g clip-path="url(#clip0_1430_21486)">
<path d="M8.42513 2.25481C19.6893 -0.751604 31.5437 -0.751604 42.8079 2.25481C46.5892 3.2638 49.4772 6.36222 50.2278 10.2152C51.5578 17.0432 51.5578 24.066 50.2278 30.8941C49.4774 34.747 46.5893 37.8454 42.8079 38.8554C42.5223 38.9317 42.2361 39.0061 41.9495 39.0785C41.3825 39.2214 40.982 39.7372 40.982 40.3244V48.4863C40.982 48.686 40.866 48.868 40.6855 48.9522C40.5051 49.0363 40.2915 49.0079 40.1395 48.8788L31.8438 41.8501C31.1447 41.258 30.2453 40.9556 29.3316 41.0065C22.2933 41.3999 15.2373 40.6737 8.42513 38.8554C4.6437 37.8454 1.75575 34.747 1.00528 30.8941C-0.324677 24.066 -0.324677 17.0432 1.00528 10.2152C1.75594 6.36222 4.6439 3.2638 8.42513 2.25481ZM30.2263 30.8324C30.5073 30.8324 30.7385 30.6005 30.7385 30.3186V20.5546H40.4699C40.7508 20.5546 40.982 20.3227 40.982 20.0408V10.7906C40.982 10.5088 40.7508 10.2768 40.4699 10.2768H10.7637C10.4827 10.2768 10.2516 10.5088 10.2516 10.7906V20.0408C10.2516 20.3227 10.4827 20.5546 10.7637 20.5546H20.4951V30.3186C20.4951 30.6005 20.7263 30.8324 21.0072 30.8324H30.2263Z" fill="#E01F26"/>
<path d="M41.6016 4.68359H9.70312V36.5821H41.6016V4.68359Z" fill="white"/>
<path fill-rule="evenodd" clip-rule="evenodd" d="M37.4443 10.2345C37.4443 9.46859 36.8234 8.84766 36.0575 8.84766H15.2541C14.4881 8.84766 13.8672 9.46859 13.8672 10.2345V15.0887C13.8672 15.8546 14.4881 16.4756 15.2541 16.4756H20.1121C20.878 16.4756 21.499 17.0965 21.499 17.8625V31.0311C21.499 31.7971 22.1199 32.418 22.8859 32.418H28.4334C29.1994 32.418 29.8203 31.7971 29.8203 31.0311V17.8625C29.8203 17.0965 30.4412 16.4756 31.2072 16.4756H36.0575C36.8234 16.4756 37.4443 15.8546 37.4443 15.0887V10.2345Z" fill="#E01F26"/>
<path d="M8.27943 2.21578C19.3486 -0.738594 30.9978 -0.738594 42.067 2.21578C45.7829 3.20731 48.6209 6.25209 49.3586 10.0384C50.6655 16.7482 50.6655 23.6495 49.3586 30.3593C48.6211 34.1456 45.783 37.1903 42.067 38.1828C41.7864 38.2578 41.5052 38.3309 41.2235 38.4021C40.6664 38.5425 40.2728 39.0493 40.2728 39.6264V47.647C40.2728 47.8432 40.1587 48.0221 39.9814 48.1048C39.8041 48.1875 39.5942 48.1596 39.4448 48.0327L31.2928 41.1257C30.6057 40.5438 29.7219 40.2467 28.824 40.2967C21.9076 40.6833 14.9737 39.9697 8.27943 38.1828C4.56346 37.1903 1.72549 34.1456 0.988013 30.3593C-0.318921 23.6495 -0.318921 16.7482 0.988013 10.0384C1.72568 6.25209 4.56365 3.20731 8.27943 2.21578ZM29.7033 30.2987C29.9794 30.2987 30.2066 30.0708 30.2066 29.7938V20.1988H39.7695C40.0455 20.1988 40.2728 19.9709 40.2728 19.6939V10.6038C40.2728 10.3269 40.0455 10.0989 39.7695 10.0989H10.5776C10.3014 10.0989 10.0742 10.3269 10.0742 10.6038V19.6939C10.0742 19.9709 10.3014 20.1988 10.5776 20.1988H20.1405V29.7938C20.1405 30.0708 20.3676 30.2987 20.6437 30.2987H29.7033Z" fill="white"/>
<path fill-rule="evenodd" clip-rule="evenodd" d="M37.4443 10.2306C37.4443 9.46468 36.8234 8.84375 36.0575 8.84375H15.2541C14.4881 8.84375 13.8672 9.46468 13.8672 10.2306V15.0848C13.8672 15.8507 14.4881 16.4717 15.2541 16.4717H36.0575C36.8234 16.4717 37.4443 15.8507 37.4443 15.0848V10.2306ZM28.4334 32.4219C29.1994 32.4219 29.8203 31.801 29.8203 31.035V17.8595C29.8203 17.0936 29.1994 16.4727 28.4334 16.4727H22.8859C22.1199 16.4727 21.499 17.0936 21.499 17.8595V31.035C21.499 31.801 22.1199 32.4219 22.8859 32.4219H28.4334Z" fill="#FC3234"/>
</g>
<defs>
<clipPath id="clip0_1430_21486">
<rect width="52" height="49" fill="white"/>
</clipPath>
</defs>
</svg>
